<svg viewBox="0 0 200 200" xmlns="http://www.w3.org/2000/svg">
  <path fill="#FF0066" d="M43.4,-75.5C56.6,-67.5,68,-56.6,75.7,-43.6C83.3,-30.6,87.3,-15.3,87,-0.2C86.7,15,82.2,29.9,74.9,43.5C67.5,57.2,57.4,69.5,44.4,77.6C31.5,85.7,15.7,89.5,0.4,88.8C-14.9,88.1,-29.9,82.9,-43.2,75C-56.5,67.1,-68.2,56.6,-76,43.7C-83.9,30.7,-88.1,15.4,-87.7,0.2C-87.3,-14.9,-82.4,-29.8,-74.3,-42.5C-66.3,-55.3,-55.2,-65.8,-42.3,-74C-29.4,-82.2,-14.7,-88,0.2,-88.3C15.1,-88.6,30.1,-83.5,43.4,-75.5Z" transform="translate(100 100)" />
</svg>
